<?xml version="1.0" encoding="UTF-8"?>
<!-- Created with Inkscape (http://www.inkscape.org/) -->
<svg width="1e3mm" height="1e3mm" version="1.1" viewBox="0 0 1e3 1e3" xml:space="preserve" xmlns="http://www.w3.org/2000/svg" xmlns:xlink="http://www.w3.org/1999/xlink"><defs><linearGradient id="linearGradient43"><stop stop-color="#fff" offset=".42222"/><stop stop-color="#fff" stop-opacity="0" offset="1"/></linearGradient><linearGradient id="linearGradient38"><stop stop-color="#fff" offset="0"/><stop stop-color="#fff" stop-opacity="0" offset="1"/></linearGradient><radialGradient id="radialGradient4" cx="431.52" cy="475.5" r="242.57" gradientTransform="matrix(-1.2826 2.0108 -.8852 -.56464 1565.8 -363.65)" gradientUnits="userSpaceOnUse"><stop stop-color="#2f95ff" offset="0"/><stop stop-color="#1f7fff" offset="1"/></radialGradient><clipPath id="clipPath20"><path d="m285.95 667.62v123.68l354.32-199.55-19.18 5.077-67.935 32.799-9.6705-2.2564 201.68-113.07-370.54-189.98-0.33743 170.44 38.863-105.93 246.03 130.92-152.36 77.786-0.28493 8.6616-179.1 102.29v-64.631zm-11.384-521.03v329.64l11.282-7.0111v176.28l238.62-142.88-50.528-7.0111-150.05 74.866v-348.82l231.04 109.16 8.3005-8.7034 88.385 42.532-72.579 36.085 38.692 20.514 112.56-61.175z"/></clipPath><clipPath id="clipPath23"><path d="m327.26 708.48s4.3878 6.6101 4.3878 6.6101l180.73-103.75 2.8737-1.9502s-0.057-8.2057-0.057-8.2057l4.9576-2.2224s103.34-57.795 103.34-57.795 2.0278-3.5768 2.0278-3.5768l2.3419-3.5924-23.392-10.371-110.62 59.508-54.638 38.037-23.854 16.279-86.408 66.846zm56.911-238.39 0.80587-129.83 342.25 174.07-188.58 107.48 4.9517 5.5518 231.61-122.94-409.02-209.79 6.0923 212.97zm-109.29 168.16 230.4-131.2s-30.462-3.8682-30.462-3.8682-151.49 75.024-151.49 75.024 0.60031-7.809 0.60031-7.809l146.54-82.205 74.624 10.638-262.39 151.83zm0.72528 25.304 66.243-38.521-1.6279 19.13-65.11 39.02zm22.041 137.33 390.57-233.31-75.913 28.931-314.65 175.2zm-23.089-324.61 23.088-14.425 5e-4 369.82-33.646-1.9341zm-13.663-351.08-6.242 373.8 31.197-29.797v-305.29l424.25 196.67-92.399 47.08 0.11398 17.323 127.78-68.145z"/></clipPath><linearGradient id="linearGradient30" x1="505.12" x2="476.33" y1="296" y2="360.97" gradientTransform="translate(18.691 -29.632)" gradientUnits="userSpaceOnUse"><stop stop-color="#8bc7ff" offset="0"/><stop stop-color="#8bc7ff" stop-opacity="0" offset="1"/></linearGradient><linearGradient id="linearGradient31" x1="663.5" x2="634.84" y1="333.84" y2="384.44" gradientTransform="translate(12.309 119.44)" gradientUnits="userSpaceOnUse"><stop stop-color="#8bc7ff" offset="0"/><stop stop-color="#8bc7ff" stop-opacity="0" offset="1"/></linearGradient><radialGradient id="radialGradient39" cx="543.34" cy="308.73" r="231.12" gradientTransform="matrix(1.741 .81582 -.065433 .13964 -380.99 -213.99)" gradientUnits="userSpaceOnUse" xlink:href="#linearGradient38"/><radialGradient id="radialGradient40" cx="316.99" cy="1126.7" r="231.12" gradientTransform="matrix(.0023258 1.2604 -.42285 .00078034 754.84 -193.15)" gradientUnits="userSpaceOnUse"><stop stop-color="#fff" offset="0"/><stop stop-color="#fff" stop-opacity=".49804" offset=".80617"/><stop stop-color="#fff" stop-opacity="0" offset="1"/></radialGradient><radialGradient id="radialGradient41" cx="706.74" cy="1024.7" r="231.12" gradientTransform="matrix(.0011298 -.69975 .15421 .00024899 132.6 1123.8)" gradientUnits="userSpaceOnUse"><stop stop-color="#fff" offset=".67225"/><stop stop-color="#fff" stop-opacity="0" offset="1"/></radialGradient><radialGradient id="radialGradient42" cx="708.67" cy="1062.7" r="231.12" gradientTransform="matrix(1.0502 -.61648 .065263 .11118 -518.11 951.7)" gradientUnits="userSpaceOnUse" xlink:href="#linearGradient43"/><radialGradient id="radialGradient43" cx="906.22" cy="1062.7" r="231.12" gradientTransform="matrix(-.62308 .32191 -.1008 -.19512 1162.6 411.67)" gradientUnits="userSpaceOnUse" xlink:href="#linearGradient43"/><radialGradient id="radialGradient46" cx="534.11" cy="3759.9" r="231.12" gradientTransform="matrix(.038644 .063072 -.24793 .1519 1202.5 66.959)" gradientUnits="userSpaceOnUse" xlink:href="#linearGradient38"/><radialGradient id="radialGradient47" cx="414.82" cy="531.55" r="231.12" gradientTransform="matrix(.0093176 .89839 -.52839 .0054803 647.71 -61.289)" gradientUnits="userSpaceOnUse"><stop stop-color="#fff" offset=".56296"/><stop stop-color="#fff" stop-opacity=".66275" offset=".75185"/><stop stop-color="#fff" stop-opacity="0" offset=".94074"/></radialGradient><radialGradient id="radialGradient52" cx="-653.34" cy="2556.6" r="231.12" gradientTransform="matrix(-.034468 .065448 -1.1099 -.5845 3367.1 1954.3)" gradientUnits="userSpaceOnUse" xlink:href="#linearGradient38"/><radialGradient id="radialGradient53" cx="-2390.4" cy="2458" r="231.12" gradientTransform="matrix(-.034151 -.065614 .47452 -.24698 -526.58 811.34)" gradientUnits="userSpaceOnUse" xlink:href="#linearGradient38"/><radialGradient id="radialGradient54" cx="-626.86" cy="2390.8" r="231.12" gradientTransform="matrix(-.07029 -.12726 .83303 -.46012 -1300.3 1536.1)" gradientUnits="userSpaceOnUse" xlink:href="#linearGradient38"/><radialGradient id="radialGradient55" cx="-751" cy="2246.8" r="231.12" gradientTransform="matrix(-.060625 -.1084 1.5952 -.89213 -3005.5 2520.9)" gradientUnits="userSpaceOnUse"><stop stop-color="#fff" offset="0"/><stop stop-color="#fff" stop-opacity="0" offset="1"/></radialGradient><radialGradient id="radialGradient56" cx="78.71" cy="2277.6" r="231.12" gradientTransform="matrix(.053382 .10511 -.67944 .34508 1996.2 -165.07)" gradientUnits="userSpaceOnUse" xlink:href="#linearGradient38"/><radialGradient id="radialGradient57" cx="801.98" cy="2737.6" r="231.12" gradientTransform="matrix(-.22945 -.016679 .040072 -.55125 366.29 2235)" gradientUnits="userSpaceOnUse" xlink:href="#linearGradient38"/><radialGradient id="radialGradient60" cx="-657.37" cy="2469" r="231.12" gradientTransform="matrix(-.034468 .065448 -1.1099 -.5845 3367.1 1954.3)" gradientUnits="userSpaceOnUse" xlink:href="#linearGradient38"/></defs><g transform="matrix(1.5331 0 0 1.5331 -251 -218.96)" clip-path="url(#clipPath20)"><g id="g19"><path d="m285.95 667.62v123.68l354.32-199.55-19.18 5.077-67.935 32.799-9.6705-2.2564 201.68-113.07-370.54-189.98-0.33743 170.44 38.863-105.93 246.03 130.92-152.36 77.786-0.28493 8.6616-179.1 102.29v-64.631zm-11.384-521.03v329.64l11.282-7.0111v176.28l238.62-142.88-50.528-7.0111-150.05 74.866v-348.82l231.04 109.16 8.3005-8.7034 88.385 42.532-72.579 36.085 38.692 20.514 112.56-61.175z" fill="url(#radialGradient4)"/></g><path d="m281.73 112.2 502 234.57-132.37 106.6-420.22-241.45z" fill="url(#linearGradient30)" opacity=".37027"/><path d="m373.81 308.23 403.53 187.61-53.502 103.86-396.1-199.82z" fill="url(#linearGradient31)"/><g clip-path="url(#clipPath23)" opacity=".65946"><g id="g22"><path d="m327.26 708.48s4.3878 6.6101 4.3878 6.6101l180.73-103.75 2.8737-1.9502s-0.057-8.2057-0.057-8.2057l4.9576-2.2224s103.34-57.795 103.34-57.795 2.0278-3.5768 2.0278-3.5768l2.3419-3.5924-23.392-10.371-110.62 59.508-54.638 38.037-23.854 16.279-86.408 66.846zm56.911-238.39 0.80587-129.83 342.25 174.07-188.58 107.48 4.9517 5.5518 231.61-122.94-409.02-209.79 6.0923 212.97zm-109.29 168.16 230.4-131.2s-30.462-3.8682-30.462-3.8682-151.49 75.024-151.49 75.024 0.60031-7.809 0.60031-7.809l146.54-82.205 74.624 10.638-262.39 151.83zm0.72528 25.304 66.243-38.521-1.6279 19.13-65.11 39.02zm22.041 137.33 390.57-233.31-75.913 28.931-314.65 175.2zm-23.089-324.61 23.088-14.425 5e-4 369.82-33.646-1.9341zm-13.663-351.08-6.242 373.8 31.197-29.797v-305.29l424.25 196.67-92.399 47.08 0.11398 17.323 127.78-68.145z" opacity="0" stroke-width=".26458px"/></g><rect x="22.104" y="9.1239" width="946.38" height="935.22" fill="url(#radialGradient39)" opacity="1"/><path d="m22.104 9.1239 744.01 229.51-480.3 27.491v257h-263.71z" fill="url(#radialGradient40)" opacity="1" stroke-opacity="0"/><rect x="22.104" y="9.1239" width="908.99" height="639.94" fill="url(#radialGradient41)" opacity=".48649"/><rect x="22.104" y="9.1239" width="908.99" height="639.94" fill="url(#radialGradient42)" opacity=".37297"/><rect x="10.251" y="480.49" width="922.78" height="162.13" rx="272.61" ry="81.063" fill="url(#radialGradient43)" opacity="1"/><rect x="22.104" y="9.1239" width="946.38" height="935.22" fill="url(#radialGradient46)" opacity=".48108"/><rect x="357.62" y="295.41" width="176.01" height="199.14" ry="6.1246" fill="url(#radialGradient47)" opacity="1"/><rect x="332.85" y="20.729" width="635.64" height="923.61" fill="url(#radialGradient52)" opacity="1"/><rect x="576.72" y="214.13" width="341.17" height="210.06" fill="url(#radialGradient53)" opacity="1"/><rect x="332.85" y="20.729" width="635.64" height="923.61" fill="url(#radialGradient54)" opacity="1"/><path d="m266.12 783.09 404.17-216.85 298.19 378.11h-796.81z" fill="url(#radialGradient55)" opacity="1" stroke-opacity="0"/><rect x="171.67" y="31.044" width="796.81" height="913.3" fill="url(#radialGradient56)" opacity="1"/><path d="m264.51 661.56 81.137-34.303-33.218 97.113 160.98 4.7991-199.85 89.123z" fill="url(#radialGradient57)" opacity=".71892" stroke-opacity="0"/><rect x="332.85" y="20.729" width="635.64" height="923.61" fill="url(#radialGradient60)" opacity="1"/></g></g></svg>